<svg width="30" height="29" viewBox="0 0 30 29" fill="none" xmlns="http://www.w3.org/2000/svg">
<g clip-path="url(#clip0_49_11124)">
<path d="M17.2231 26.1277C24.2801 26.1277 30.0009 20.4126 30.0009 13.3627C30.0009 6.31274 24.2801 0.597656 17.2231 0.597656C10.1661 0.597656 4.44531 6.31274 4.44531 13.3627C4.44531 20.4126 10.1661 26.1277 17.2231 26.1277Z" fill="#65BD20"/>
<path d="M17.0396 6.04274C17.7064 6.04274 18.3459 6.30736 18.8173 6.77838C19.2889 7.24941 19.5538 7.88824 19.5538 8.55437V9.0567H14.5254V8.55437C14.5254 7.88824 14.7903 7.24941 15.2619 6.77838C15.7333 6.30736 16.3728 6.04274 17.0396 6.04274ZM20.5594 9.0567V8.55437C20.5594 7.62179 20.1886 6.72742 19.5284 6.06798C18.8684 5.40855 17.9731 5.03809 17.0396 5.03809C16.1061 5.03809 15.2108 5.40855 14.5508 6.06798C13.8907 6.72742 13.5198 7.62179 13.5198 8.55437V9.0567H10V19.1032C10 19.6361 10.2119 20.1472 10.5891 20.524C10.9663 20.9009 11.4779 21.1126 12.0113 21.1126H22.0679C22.6013 21.1126 23.1129 20.9009 23.4901 20.524C23.8673 20.1472 24.0792 19.6361 24.0792 19.1032V9.0567H20.5594ZM11.0057 10.0613H23.0736V19.1032C23.0736 19.3696 22.9676 19.6253 22.779 19.8136C22.5904 20.002 22.3347 20.1079 22.0679 20.1079H12.0113C11.7446 20.1079 11.4888 20.002 11.3002 19.8136C11.1117 19.6253 11.0057 19.3696 11.0057 19.1032V10.0613Z" fill="white"/>
<path d="M15.5556 20.5776C15.5556 16.2864 12.0733 12.8076 7.77778 12.8076C3.48223 12.8076 0 16.2864 0 20.5776C0 24.8689 3.48223 28.3476 7.77778 28.3476C12.0733 28.3476 15.5556 24.8689 15.5556 20.5776Z" fill="white"/>
<path d="M5.72112 22.0598V18.7109H6.56866V22.0598H5.72112ZM4.46875 20.8087V19.962H7.82103V20.8087H4.46875ZM10.9129 17.9541V22.7977H9.88778V18.9261H9.85938L8.74906 19.6214V18.7132L9.94934 17.9541H10.9129Z" fill="black"/>
</g>
<defs>
<clipPath id="clip0_49_11124">
<rect width="30" height="27.75" fill="white" transform="translate(0 0.597656)"/>
</clipPath>
</defs>
</svg>
