<svg width="30" height="29" viewBox="0 0 30 29" fill="none" xmlns="http://www.w3.org/2000/svg">
<g clip-path="url(#clip0_49_11131)">
<path d="M17.2231 25.8777C24.2801 25.8777 30.0009 20.1626 30.0009 13.1127C30.0009 6.06274 24.2801 0.347656 17.2231 0.347656C10.1661 0.347656 4.44531 6.06274 4.44531 13.1127C4.44531 20.1626 10.1661 25.8777 17.2231 25.8777Z" fill="#668AE5"/>
<path d="M17.0396 5.79274C17.7064 5.79274 18.3459 6.05736 18.8173 6.52838C19.2889 6.99941 19.5538 7.63824 19.5538 8.30437V8.8067H14.5254V8.30437C14.5254 7.63824 14.7903 6.99941 15.2619 6.52838C15.7333 6.05736 16.3728 5.79274 17.0396 5.79274ZM20.5594 8.8067V8.30437C20.5594 7.37179 20.1886 6.47742 19.5284 5.81798C18.8684 5.15855 17.9731 4.78809 17.0396 4.78809C16.1061 4.78809 15.2108 5.15855 14.5508 5.81798C13.8907 6.47742 13.5198 7.37179 13.5198 8.30437V8.8067H10V18.8532C10 19.3861 10.2119 19.8972 10.5891 20.274C10.9663 20.6509 11.4779 20.8626 12.0113 20.8626H22.0679C22.6013 20.8626 23.1129 20.6509 23.4901 20.274C23.8673 19.8972 24.0792 19.3861 24.0792 18.8532V8.8067H20.5594ZM11.0057 9.81135H23.0736V18.8532C23.0736 19.1196 22.9676 19.3753 22.779 19.5636C22.5904 19.752 22.3347 19.8579 22.0679 19.8579H12.0113C11.7446 19.8579 11.4888 19.752 11.3002 19.5636C11.1117 19.3753 11.0057 19.1196 11.0057 18.8532V9.81135Z" fill="white"/>
<path d="M15.5556 20.3276C15.5556 16.0364 12.0733 12.5576 7.77778 12.5576C3.48223 12.5576 0 16.0364 0 20.3276C0 24.6189 3.48223 28.0976 7.77778 28.0976C12.0733 28.0976 15.5556 24.6189 15.5556 20.3276Z" fill="white"/>
<path d="M5.32268 21.8096V18.4608H6.17022V21.8096H5.32268ZM4.07031 20.5585V19.7118H7.42259V20.5585H4.07031ZM8.26835 22.5476V21.8096L9.9942 20.2132C10.141 20.0714 10.2641 19.9436 10.3635 19.8301C10.4645 19.7166 10.5411 19.6054 10.5932 19.4966C10.6452 19.3863 10.6713 19.2672 10.6713 19.1395C10.6713 18.9976 10.6389 18.8755 10.5742 18.7729C10.5095 18.6689 10.4211 18.5892 10.3091 18.534C10.197 18.4773 10.07 18.4489 9.92791 18.4489C9.77956 18.4489 9.65014 18.4789 9.53966 18.5388C9.42918 18.5987 9.34395 18.6846 9.28398 18.7965C9.224 18.9085 9.19401 19.0417 9.19401 19.1962H8.221C8.221 18.8793 8.29281 18.6042 8.43644 18.3708C8.58006 18.1375 8.78129 17.9569 9.04014 17.8293C9.29897 17.7015 9.59727 17.6377 9.93501 17.6377C10.2822 17.6377 10.5845 17.6992 10.8417 17.8222C11.1006 17.9436 11.3018 18.1123 11.4455 18.3283C11.589 18.5443 11.6609 18.7919 11.6609 19.0709C11.6609 19.2539 11.6246 19.4343 11.5519 19.6125C11.4809 19.7907 11.3539 19.9886 11.1708 20.2061C10.9877 20.4221 10.7297 20.6815 10.3967 20.9842L9.6888 21.6772V21.7103H11.7248V22.5476H8.26835Z" fill="black"/>
</g>
<defs>
<clipPath id="clip0_49_11131">
<rect width="30" height="27.75" fill="white" transform="translate(0 0.347656)"/>
</clipPath>
</defs>
</svg>
