<svg width="30" height="28" viewBox="0 0 30 28" fill="none" xmlns="http://www.w3.org/2000/svg">
<g clip-path="url(#clip0_49_11138)">
<path d="M17.2231 25.6277C24.2801 25.6277 30.0009 19.9126 30.0009 12.8627C30.0009 5.81274 24.2801 0.0976562 17.2231 0.0976562C10.1661 0.0976562 4.44531 5.81274 4.44531 12.8627C4.44531 19.9126 10.1661 25.6277 17.2231 25.6277Z" fill="#FFB800"/>
<path d="M17.0396 5.54274C17.7064 5.54274 18.3459 5.80736 18.8173 6.27838C19.2889 6.74941 19.5538 7.38824 19.5538 8.05437V8.5567H14.5254V8.05437C14.5254 7.38824 14.7903 6.74941 15.2619 6.27838C15.7333 5.80736 16.3728 5.54274 17.0396 5.54274ZM20.5594 8.5567V8.05437C20.5594 7.12179 20.1886 6.22742 19.5284 5.56798C18.8684 4.90855 17.9731 4.53809 17.0396 4.53809C16.1061 4.53809 15.2108 4.90855 14.5508 5.56798C13.8907 6.22742 13.5198 7.12179 13.5198 8.05437V8.5567H10V18.6032C10 19.1361 10.2119 19.6472 10.5891 20.024C10.9663 20.4009 11.4779 20.6126 12.0113 20.6126H22.0679C22.6013 20.6126 23.1129 20.4009 23.4901 20.024C23.8673 19.6472 24.0792 19.1361 24.0792 18.6032V8.5567H20.5594ZM11.0057 9.56135H23.0736V18.6032C23.0736 18.8696 22.9676 19.1253 22.779 19.3136C22.5904 19.502 22.3347 19.6079 22.0679 19.6079H12.0113C11.7446 19.6079 11.4888 19.502 11.3002 19.3136C11.1117 19.1253 11.0057 18.8696 11.0057 18.6032V9.56135Z" fill="white"/>
<path d="M15.5556 20.0776C15.5556 15.7864 12.0733 12.3076 7.77778 12.3076C3.48223 12.3076 0 15.7864 0 20.0776C0 24.3689 3.48223 27.8476 7.77778 27.8476C12.0733 27.8476 15.5556 24.3689 15.5556 20.0776Z" fill="white"/>
<path d="M5.20549 21.5596V18.2108H6.05303V21.5596H5.20549ZM3.95312 20.3085V19.4618H7.30539V20.3085H3.95312ZM9.98079 22.3638C9.62726 22.3638 9.31239 22.3031 9.03619 22.1817C8.76157 22.0587 8.54456 21.89 8.38516 21.6755C8.22733 21.4595 8.14605 21.2104 8.1413 20.9282H9.1735C9.17981 21.0465 9.21849 21.1505 9.28951 21.2404C9.36211 21.3286 9.45838 21.3972 9.57834 21.4462C9.69828 21.495 9.83323 21.5194 9.98317 21.5194C10.1394 21.5194 10.2775 21.4918 10.3975 21.4366C10.5174 21.3815 10.6113 21.305 10.6792 21.2073C10.7471 21.1095 10.781 20.9967 10.781 20.8691C10.781 20.7398 10.7447 20.6255 10.6721 20.5261C10.6011 20.4252 10.4985 20.3464 10.3643 20.2897C10.2317 20.2328 10.0739 20.2044 9.89084 20.2044H9.43866V19.4524H9.89084C10.0455 19.4524 10.182 19.4255 10.3004 19.3719C10.4203 19.3184 10.5135 19.2443 10.5798 19.1497C10.646 19.0535 10.6792 18.9416 10.6792 18.8138C10.6792 18.6924 10.65 18.5859 10.5916 18.4946C10.5348 18.4016 10.4543 18.329 10.3501 18.2769C10.2475 18.225 10.1276 18.1989 9.99027 18.1989C9.85138 18.1989 9.72433 18.2242 9.60911 18.2746C9.49389 18.3234 9.40157 18.3937 9.33213 18.485C9.26268 18.5765 9.22559 18.6837 9.22086 18.8067H8.23837C8.2431 18.5277 8.32281 18.2817 8.47748 18.0688C8.63216 17.856 8.84049 17.6896 9.10248 17.5698C9.36606 17.4484 9.66356 17.3877 9.995 17.3877C10.3296 17.3877 10.6224 17.4484 10.8733 17.5698C11.1242 17.6912 11.3191 17.8552 11.458 18.0617C11.5986 18.2667 11.668 18.4969 11.6664 18.7523C11.668 19.0235 11.5836 19.2498 11.4131 19.4311C11.2442 19.6125 11.024 19.7276 10.7526 19.7764V19.8143C11.1093 19.86 11.3807 19.9838 11.567 20.1856C11.7548 20.3858 11.8479 20.6366 11.8464 20.9377C11.8479 21.2135 11.7682 21.4587 11.6072 21.6732C11.4478 21.8876 11.2277 22.0564 10.9467 22.1793C10.6658 22.3023 10.3438 22.3638 9.98079 22.3638Z" fill="black"/>
</g>
<defs>
<clipPath id="clip0_49_11138">
<rect width="30" height="27.75" fill="white" transform="translate(0 0.0976562)"/>
</clipPath>
</defs>
</svg>
