<svg width="20" height="20" viewBox="0 0 20 20" fill="none" xmlns="http://www.w3.org/2000/svg">
<path d="M7.7689 7.91925H7.9189V7.76925V3.30497V3.15497H7.7689H3.30462H3.15462V3.30497V7.76925V7.91925H3.30462H7.7689ZM16.6975 7.91925H16.8475V7.76925V3.30497V3.15497H16.6975H12.2332H12.0832V3.30497V7.76925V7.91925H12.2332H16.6975ZM16.6975 16.8478H16.8475V16.6978V12.2335V12.0835H16.6975H12.2332H12.0832V12.2335V16.6978V16.8478H12.2332H16.6975ZM5.02962 14.4657V14.6157H5.17962H8.03676C8.05213 14.6157 8.06533 14.6289 8.06533 14.6443V15.7157C8.06533 15.7311 8.05213 15.7443 8.03676 15.7443H5.17962H5.02962V15.8943V18.7514C5.02962 18.7668 5.01642 18.78 5.00105 18.78H3.92962C3.91425 18.78 3.90105 18.7668 3.90105 18.7514V15.8943V15.7443H3.75105H0.893903C0.878532 15.7443 0.865332 15.7311 0.865332 15.7157V14.6443C0.865332 14.6289 0.878532 14.6157 0.893903 14.6157H3.75105H3.90105V14.4657V11.6085C3.90105 11.5932 3.91425 11.58 3.92962 11.58H5.00105C5.01642 11.58 5.02962 11.5932 5.02962 11.6085V14.4657ZM2.1439 1.93711H8.92962C9.0432 1.93711 9.13676 2.03067 9.13676 2.14425V8.92997C9.13676 9.04355 9.0432 9.13711 8.92962 9.13711H2.1439C2.03032 9.13711 1.93676 9.04355 1.93676 8.92997V2.14425C1.93676 2.03067 2.03032 1.93711 2.1439 1.93711ZM11.0725 1.93711H17.8582C17.9718 1.93711 18.0653 2.03067 18.0653 2.14425V8.92997C18.0653 9.04355 17.9718 9.13711 17.8582 9.13711H11.0725C10.9589 9.13711 10.8653 9.04355 10.8653 8.92997V2.14425C10.8653 2.03067 10.9589 1.93711 11.0725 1.93711ZM11.0725 10.8657H17.8582C17.9718 10.8657 18.0653 10.9592 18.0653 11.0728V17.8585C18.0653 17.9721 17.9718 18.0657 17.8582 18.0657H11.0725C10.9589 18.0657 10.8653 17.9721 10.8653 17.8585V11.0728C10.8653 10.9592 10.9589 10.8657 11.0725 10.8657Z" fill="black" fill-opacity="0.85" stroke="white" stroke-width="0.3"/>
</svg>
