<svg width="26" height="25" viewBox="0 0 26 25" fill="none" xmlns="http://www.w3.org/2000/svg">
<path fill-rule="evenodd" clip-rule="evenodd" d="M7.63889 17.9583L6.4375 15.8889H15.2292L16.868 18.75H8.90972C8.36111 18.75 7.875 18.4306 7.63889 17.9583ZM20.4166 15.125C20.5625 15.3542 20.6458 15.625 20.6458 15.9028C20.6458 16.2222 20.5764 16.3889 20.3611 16.7639L19.2222 18.75L12.0139 6.25002H14.4792C14.7397 6.24881 14.9955 6.31947 15.2185 6.45424C15.4415 6.58901 15.623 6.78266 15.743 7.0139L20.4166 15.125Z" fill="white"/>
<path d="M14.0486 13.8472L10.8333 8.27779L7.60417 13.8472H14.0486Z" fill="white"/>
<rect x="1.3125" y="0.5" width="24" height="24" rx="12" stroke="white"/>
</svg>
