<svg width="18" height="19" viewBox="0 0 18 19" fill="none" xmlns="http://www.w3.org/2000/svg">
<path d="M8.8795 1.30817C9.65754 1.30817 10.4036 1.61333 10.9536 2.15648C11.5037 2.69965 11.8128 3.43633 11.8128 4.20447V4.78373H5.94637V4.20447C5.94637 3.43633 6.25541 2.69965 6.80556 2.15648C7.35558 1.61333 8.10159 1.30817 8.8795 1.30817ZM12.986 4.78373V4.20447C12.986 3.12906 12.5533 2.09772 11.7832 1.33728C11.0132 0.576859 9.96865 0.149658 8.8795 0.149658C7.79048 0.149658 6.74593 0.576859 5.97593 1.33728C5.2058 2.09772 4.77309 3.12906 4.77309 4.20447V4.78373H0.666687V16.3689C0.666687 16.9835 0.913917 17.5728 1.35397 18.0073C1.79404 18.4419 2.39089 18.686 3.01324 18.686H14.7459C15.3682 18.686 15.9651 18.4419 16.4051 18.0073C16.8452 17.5728 17.0924 16.9835 17.0924 16.3689V4.78373H12.986ZM1.83995 5.94225H15.9192V16.3689C15.9192 16.6761 15.7955 16.9709 15.5755 17.1881C15.3555 17.4053 15.0571 17.5275 14.7459 17.5275H3.01324C2.702 17.5275 2.40359 17.4053 2.18361 17.1881C1.96363 16.9709 1.83995 16.6761 1.83995 16.3689V5.94225Z" fill="white"/>
</svg>
