<svg width="20" height="20" viewBox="0 0 20 20" fill="none" xmlns="http://www.w3.org/2000/svg">
<path d="M17.1892 9.04769C16.7559 8.07236 16.1259 7.19697 15.3388 6.47626L14.6892 5.88027C14.6672 5.86059 14.6406 5.84663 14.6119 5.8396C14.5832 5.83257 14.5532 5.8327 14.5245 5.83998C14.4959 5.84725 14.4695 5.86144 14.4476 5.88131C14.4257 5.90118 14.409 5.92612 14.399 5.95394L14.1089 6.78653C13.928 7.30885 13.5955 7.84233 13.1245 8.36688C13.0932 8.40036 13.0575 8.40929 13.033 8.41153C13.0084 8.41376 12.9705 8.40929 12.937 8.37804C12.9057 8.35126 12.8901 8.31108 12.8923 8.2709C12.9749 6.92715 12.5731 5.41152 11.6937 3.76197C10.966 2.39144 9.95483 1.32224 8.69144 0.576703L7.76957 0.0342927C7.64903 -0.0371358 7.49501 0.0566141 7.50171 0.197239L7.55082 1.26867C7.5843 2.00081 7.49948 2.64813 7.29858 3.18608C7.05305 3.84456 6.70037 4.45617 6.24948 5.00527C5.93569 5.38689 5.58004 5.73206 5.18921 6.03429C4.24793 6.75788 3.48254 7.68504 2.95037 8.74635C2.41951 9.81691 2.14298 10.9956 2.14233 12.1905C2.14233 13.2441 2.34992 14.2642 2.76064 15.2263C3.15721 16.1525 3.72952 16.9932 4.44591 17.7017C5.16912 18.416 6.00841 18.9785 6.94367 19.3691C7.91242 19.7754 8.93921 19.9807 9.99948 19.9807C11.0597 19.9807 12.0865 19.7754 13.0553 19.3713C13.9882 18.983 14.8366 18.4167 15.553 17.7039C16.2763 16.9896 16.8432 16.1548 17.2383 15.2285C17.6484 14.2691 17.8588 13.2362 17.8566 12.1928C17.8566 11.1035 17.6334 10.0455 17.1892 9.04769ZM14.4861 16.6213C13.2874 17.8088 11.6959 18.4606 9.99948 18.4606C8.30305 18.4606 6.71153 17.8088 5.51287 16.6213C4.31867 15.4361 3.66019 13.8646 3.66019 12.1928C3.66019 11.2218 3.87894 10.291 4.30975 9.42492C4.72939 8.57894 5.35439 7.82224 6.11332 7.23965C6.59733 6.86955 7.03633 6.44403 7.42135 5.97179C7.97939 5.29099 8.41689 4.53206 8.72046 3.71733C8.84498 3.38125 8.93547 3.03353 8.99055 2.67938C9.5285 3.17492 9.97939 3.77313 10.3566 4.47402C11.1022 5.87135 11.4459 7.11465 11.3789 8.17269C11.3629 8.42187 11.4036 8.67145 11.498 8.90264C11.5923 9.13384 11.7378 9.34064 11.9236 9.50751C12.0846 9.65292 12.2728 9.7649 12.4775 9.83694C12.6821 9.90898 12.899 9.93964 13.1155 9.92715C13.5553 9.90483 13.9593 9.71063 14.2539 9.38251C14.5508 9.04992 14.8075 8.71063 15.0218 8.36465C15.3343 8.7642 15.5955 9.19947 15.8031 9.66822C16.158 10.4673 16.3388 11.3178 16.3388 12.1928C16.3388 13.8646 15.6803 15.4383 14.4861 16.6213Z" fill="black" fill-opacity="0.85"/>
</svg>
