<svg width="69" height="25" viewBox="0 0 69 25" fill="none" xmlns="http://www.w3.org/2000/svg">
<path d="M5.62577 3.33666C5.59982 3.01146 5.47816 2.7578 5.26078 2.57569C5.04665 2.39357 4.72059 2.30252 4.2826 2.30252C4.00358 2.30252 3.77485 2.33666 3.59641 2.40495C3.42121 2.47 3.29144 2.55943 3.20708 2.67325C3.12273 2.78707 3.07893 2.91715 3.07568 3.06349C3.06919 3.18382 3.09028 3.29276 3.13895 3.39032C3.19086 3.48463 3.27197 3.57081 3.38228 3.64886C3.49259 3.72365 3.63372 3.79195 3.80567 3.85373C3.97762 3.91552 4.18202 3.97081 4.41886 4.01959L5.23645 4.1952C5.78799 4.31227 6.26005 4.46674 6.65262 4.65861C7.0452 4.85048 7.36639 5.0765 7.61621 5.33666C7.86603 5.59357 8.04934 5.883 8.16613 6.20495C8.28618 6.52691 8.34782 6.87813 8.35106 7.25861C8.34782 7.91552 8.18398 8.47162 7.85954 8.92691C7.5351 9.38219 7.07115 9.72853 6.46769 9.96593C5.86748 10.2033 5.14561 10.322 4.30206 10.322C3.43581 10.322 2.67987 10.1936 2.03423 9.93666C1.39184 9.67975 0.892208 9.28463 0.535325 8.7513C0.181686 8.21471 0.00324439 7.52853 0 6.69276H2.56956C2.58578 6.99845 2.66202 7.25536 2.79829 7.46349C2.93455 7.67162 3.12597 7.82934 3.37255 7.93666C3.62236 8.04398 3.91922 8.09764 4.26313 8.09764C4.55188 8.09764 4.79359 8.06187 4.98825 7.99032C5.18292 7.91878 5.33054 7.81959 5.43111 7.69276C5.53169 7.56593 5.5836 7.42121 5.58684 7.25861C5.5836 7.10577 5.53331 6.97243 5.43598 6.85861C5.34189 6.74154 5.18616 6.63747 4.96879 6.54642C4.75141 6.45211 4.45779 6.3643 4.08793 6.283L3.09515 6.06837C2.21268 5.8765 1.51675 5.55617 1.00738 5.10739C0.501258 4.65536 0.249818 4.0391 0.253063 3.25861C0.249818 2.62447 0.418526 2.06999 0.759188 1.5952C1.10309 1.11715 1.5784 0.744792 2.1851 0.478125C2.79504 0.211458 3.49421 0.078125 4.2826 0.078125C5.08721 0.078125 5.78313 0.213084 6.37036 0.483003C6.9576 0.752922 7.41019 1.13341 7.72814 1.62447C8.04934 2.11227 8.21156 2.683 8.2148 3.33666H5.62577Z" fill="#282828"/>
<path d="M9.38035 10.205V0.21471H12.0862V4.25373H12.2224L15.2203 0.21471H18.3738L15.0061 4.66349L18.4517 10.205H15.2203L12.9816 6.45861L12.0862 7.62934V10.205H9.38035Z" fill="#282828"/>
<path d="M21.8826 0.21471V10.205H19.1768V0.21471H21.8826Z" fill="#282828"/>
<path d="M23.165 10.205V0.21471H25.8708V8.01959H29.9003V10.205H23.165Z" fill="#282828"/>
<path d="M30.9941 10.205V0.21471H33.6999V8.01959H37.7294V10.205H30.9941Z" fill="#282828"/>
<path d="M44.1959 3.33666C44.17 3.01146 44.0483 2.7578 43.8309 2.57569C43.6168 2.39357 43.2907 2.30252 42.8527 2.30252C42.5737 2.30252 42.345 2.33666 42.1665 2.40495C41.9913 2.47 41.8616 2.55943 41.7772 2.67325C41.6929 2.78707 41.6491 2.91715 41.6458 3.06349C41.6393 3.18382 41.6604 3.29276 41.7091 3.39032C41.761 3.48463 41.8421 3.57081 41.9524 3.64886C42.0627 3.72365 42.2039 3.79195 42.3758 3.85373C42.5478 3.91552 42.7522 3.97081 42.989 4.01959L43.8066 4.1952C44.3581 4.31227 44.8302 4.46674 45.2228 4.65861C45.6153 4.85048 45.9365 5.0765 46.1863 5.33666C46.4362 5.59357 46.6195 5.883 46.7363 6.20495C46.8563 6.52691 46.918 6.87813 46.9212 7.25861C46.918 7.91552 46.7541 8.47162 46.4297 8.92691C46.1052 9.38219 45.6413 9.72853 45.0378 9.96593C44.4376 10.2033 43.7157 10.322 42.8722 10.322C42.0059 10.322 41.25 10.1936 40.6044 9.93666C39.962 9.67975 39.4623 9.28463 39.1055 8.7513C38.7518 8.21471 38.5734 7.52853 38.5701 6.69276H41.1397C41.1559 6.99845 41.2322 7.25536 41.3684 7.46349C41.5047 7.67162 41.6961 7.82934 41.9427 7.93666C42.1925 8.04398 42.4894 8.09764 42.8333 8.09764C43.122 8.09764 43.3637 8.06187 43.5584 7.99032C43.7531 7.91878 43.9007 7.81959 44.0012 7.69276C44.1018 7.56593 44.1537 7.42121 44.157 7.25861C44.1537 7.10577 44.1034 6.97243 44.0061 6.85861C43.912 6.74154 43.7563 6.63747 43.5389 6.54642C43.3215 6.45211 43.0279 6.3643 42.6581 6.283L41.6653 6.06837C40.7828 5.8765 40.0869 5.55617 39.5775 5.10739C39.0714 4.65536 38.82 4.0391 38.8232 3.25861C38.82 2.62447 38.9887 2.06999 39.3293 1.5952C39.6732 1.11715 40.1485 0.744792 40.7552 0.478125C41.3652 0.211458 42.0643 0.078125 42.8527 0.078125C43.6573 0.078125 44.3533 0.213084 44.9405 0.483003C45.5277 0.752922 45.9803 1.13341 46.2983 1.62447C46.6195 2.11227 46.7817 2.683 46.7849 3.33666H44.1959Z" fill="#282828"/>
<path d="M56.5789 0.21471H59.2848V6.61471C59.2848 7.37569 59.1031 8.03422 58.7397 8.59032C58.3796 9.14317 57.8767 9.57081 57.2311 9.87325C56.5854 10.1724 55.836 10.322 54.9827 10.322C54.1229 10.322 53.3702 10.1724 52.7246 9.87325C52.079 9.57081 51.5761 9.14317 51.216 8.59032C50.8591 8.03422 50.6806 7.37569 50.6806 6.61471V0.21471H53.3865V6.38056C53.3865 6.68951 53.4546 6.96593 53.5909 7.20983C53.7271 7.45048 53.9153 7.6391 54.1554 7.77569C54.3987 7.91227 54.6745 7.98056 54.9827 7.98056C55.2942 7.98056 55.5699 7.91227 55.81 7.77569C56.0501 7.6391 56.2383 7.45048 56.3745 7.20983C56.5108 6.96593 56.5789 6.68951 56.5789 6.38056V0.21471Z" fill="#282828"/>
<path d="M60.5708 10.205V0.21471H64.8728C65.6125 0.21471 66.2598 0.361052 66.8146 0.653735C67.3694 0.946418 67.8009 1.3578 68.1091 1.88788C68.4173 2.41796 68.5714 3.03747 68.5714 3.74642C68.5714 4.46186 68.4125 5.08138 68.0945 5.60495C67.7798 6.12853 67.3369 6.53178 66.7659 6.81471C66.1982 7.09764 65.5347 7.2391 64.7755 7.2391H62.2059V5.13178H64.2304C64.5484 5.13178 64.8193 5.0765 65.0432 4.96593C65.2703 4.85211 65.4438 4.69113 65.5639 4.483C65.6872 4.27487 65.7488 4.02934 65.7488 3.74642C65.7488 3.46024 65.6872 3.21634 65.5639 3.01471C65.4438 2.80983 65.2703 2.65373 65.0432 2.54642C64.8193 2.43585 64.5484 2.38056 64.2304 2.38056H63.2766V10.205H60.5708Z" fill="#282828"/>
<path d="M10.4905 17.0732C10.4646 16.748 10.3429 16.4944 10.1255 16.3123C9.91141 16.1302 9.58535 16.0391 9.14736 16.0391C8.86834 16.0391 8.63961 16.0732 8.46117 16.1415C8.28597 16.2066 8.1562 16.296 8.07184 16.4098C7.98749 16.5237 7.94369 16.6537 7.94045 16.8001C7.93396 16.9204 7.95504 17.0293 8.00371 17.1269C8.05562 17.2212 8.13673 17.3074 8.24704 17.3854C8.35735 17.4602 8.49848 17.5285 8.67043 17.5903C8.84239 17.6521 9.04678 17.7074 9.28362 17.7562L10.1012 17.9318C10.6528 18.0489 11.1248 18.2033 11.5174 18.3952C11.91 18.5871 12.2312 18.8131 12.481 19.0732C12.7308 19.3302 12.9141 19.6196 13.0309 19.9415C13.1509 20.2635 13.2126 20.6147 13.2158 20.9952C13.2126 21.6521 13.0487 22.2082 12.7243 22.6635C12.3999 23.1188 11.9359 23.4651 11.3325 23.7025C10.7322 23.9399 10.0104 24.0586 9.16683 24.0586C8.30057 24.0586 7.54463 23.9302 6.899 23.6732C6.25661 23.4163 5.75697 23.0212 5.40009 22.4879C5.04645 21.9513 4.86801 21.2651 4.86476 20.4293H7.43432C7.45054 20.735 7.52679 20.9919 7.66305 21.2001C7.79931 21.4082 7.99073 21.5659 8.23731 21.6732C8.48713 21.7806 8.78399 21.8342 9.12789 21.8342C9.41664 21.8342 9.65835 21.7985 9.85301 21.7269C10.0477 21.6554 10.1953 21.5562 10.2959 21.4293C10.3965 21.3025 10.4484 21.1578 10.4516 20.9952C10.4484 20.8424 10.3981 20.709 10.3007 20.5952C10.2067 20.4781 10.0509 20.3741 9.83355 20.283C9.61617 20.1887 9.32256 20.1009 8.9527 20.0196L7.95991 19.805C7.07744 19.6131 6.38152 19.2928 5.87215 18.844C5.36602 18.3919 5.11458 17.7757 5.11782 16.9952C5.11458 16.3611 5.28329 15.8066 5.62395 15.3318C5.96785 14.8537 6.44316 14.4814 7.04986 14.2147C7.65981 13.948 8.35897 13.8147 9.14736 13.8147C9.95197 13.8147 10.6479 13.9497 11.2351 14.2196C11.8224 14.4895 12.275 14.87 12.5929 15.3611C12.9141 15.8489 13.0763 16.4196 13.0796 17.0732H10.4905Z" fill="#282828"/>
<path d="M23.55 17.6976H20.8053C20.7858 17.47 20.7339 17.2635 20.6495 17.0781C20.5684 16.8928 20.4549 16.7334 20.3089 16.6001C20.1661 16.4635 19.9925 16.3594 19.7882 16.2879C19.5838 16.2131 19.3518 16.1757 19.0922 16.1757C18.638 16.1757 18.2536 16.2863 17.9388 16.5074C17.6274 16.7285 17.3905 17.0456 17.2283 17.4586C17.0694 17.8716 16.9899 18.3676 16.9899 18.9464C16.9899 19.5578 17.071 20.07 17.2332 20.483C17.3987 20.8928 17.6371 21.2017 17.9486 21.4098C18.26 21.6147 18.6348 21.7171 19.0728 21.7171C19.3226 21.7171 19.5464 21.6863 19.7444 21.6245C19.9423 21.5594 20.1142 21.4667 20.2602 21.3464C20.4062 21.2261 20.5246 21.0814 20.6155 20.9123C20.7096 20.7399 20.7728 20.5464 20.8053 20.3318L23.55 20.3513C23.5176 20.7741 23.3992 21.205 23.1948 21.644C22.9904 22.0798 22.7 22.483 22.3236 22.8537C21.9505 23.2212 21.4882 23.5171 20.9367 23.7415C20.3851 23.9659 19.7444 24.0781 19.0144 24.0781C18.0994 24.0781 17.2786 23.8814 16.5519 23.4879C15.8284 23.0944 15.2557 22.5155 14.834 21.7513C14.4154 20.9871 14.2062 20.0521 14.2062 18.9464C14.2062 17.8342 14.4203 16.8976 14.8486 16.1367C15.2768 15.3724 15.8543 14.7952 16.5811 14.405C17.3078 14.0115 18.1189 13.8147 19.0144 13.8147C19.6438 13.8147 20.2229 13.9009 20.7517 14.0732C21.2806 14.2456 21.7445 14.4976 22.1436 14.8293C22.5426 15.1578 22.8638 15.5627 23.1072 16.044C23.3505 16.5253 23.4981 17.0765 23.55 17.6976Z" fill="#282828"/>
<path d="M24.7776 23.9415V13.9513H27.4834V17.8537H31.0653V13.9513H33.7711V23.9415H31.0653V20.0391H27.4834V23.9415H24.7776Z" fill="#282828"/>
<path d="M44.7112 18.9464C44.7112 20.0586 44.4954 20.9968 44.0639 21.7611C43.6324 22.522 43.05 23.0993 42.3168 23.4928C41.5836 23.883 40.766 24.0781 39.864 24.0781C38.9556 24.0781 38.1348 23.8814 37.4015 23.4879C36.6716 23.0911 36.0908 22.5123 35.6593 21.7513C35.231 20.9871 35.0169 20.0521 35.0169 18.9464C35.0169 17.8342 35.231 16.8976 35.6593 16.1367C36.0908 15.3724 36.6716 14.7952 37.4015 14.405C38.1348 14.0115 38.9556 13.8147 39.864 13.8147C40.766 13.8147 41.5836 14.0115 42.3168 14.405C43.05 14.7952 43.6324 15.3724 44.0639 16.1367C44.4954 16.8976 44.7112 17.8342 44.7112 18.9464ZM41.9275 18.9464C41.9275 18.348 41.848 17.844 41.689 17.4342C41.5333 17.0212 41.3013 16.709 40.9931 16.4976C40.6881 16.283 40.3118 16.1757 39.864 16.1757C39.4163 16.1757 39.0383 16.283 38.7301 16.4976C38.4252 16.709 38.1932 17.0212 38.0342 17.4342C37.8785 17.844 37.8006 18.348 37.8006 18.9464C37.8006 19.5448 37.8785 20.0505 38.0342 20.4635C38.1932 20.8732 38.4252 21.1854 38.7301 21.4001C39.0383 21.6115 39.4163 21.7171 39.864 21.7171C40.3118 21.7171 40.6881 21.6115 40.9931 21.4001C41.3013 21.1854 41.5333 20.8732 41.689 20.4635C41.848 20.0505 41.9275 19.5448 41.9275 18.9464Z" fill="#282828"/>
<path d="M55.6184 18.9464C55.6184 20.0586 55.4026 20.9968 54.9711 21.7611C54.5396 22.522 53.9573 23.0993 53.224 23.4928C52.4908 23.883 51.6732 24.0781 50.7713 24.0781C49.8629 24.0781 49.042 23.8814 48.3088 23.4879C47.5788 23.0911 46.9981 22.5123 46.5665 21.7513C46.1383 20.9871 45.9242 20.0521 45.9242 18.9464C45.9242 17.8342 46.1383 16.8976 46.5665 16.1367C46.9981 15.3724 47.5788 14.7952 48.3088 14.405C49.042 14.0115 49.8629 13.8147 50.7713 13.8147C51.6732 13.8147 52.4908 14.0115 53.224 14.405C53.9573 14.7952 54.5396 15.3724 54.9711 16.1367C55.4026 16.8976 55.6184 17.8342 55.6184 18.9464ZM52.8347 18.9464C52.8347 18.348 52.7552 17.844 52.5962 17.4342C52.4405 17.0212 52.2085 16.709 51.9003 16.4976C51.5954 16.283 51.219 16.1757 50.7713 16.1757C50.3236 16.1757 49.9456 16.283 49.6374 16.4976C49.3324 16.709 49.1004 17.0212 48.9414 17.4342C48.7857 17.844 48.7078 18.348 48.7078 18.9464C48.7078 19.5448 48.7857 20.0505 48.9414 20.4635C49.1004 20.8732 49.3324 21.1854 49.6374 21.4001C49.9456 21.6115 50.3236 21.7171 50.7713 21.7171C51.219 21.7171 51.5954 21.6115 51.9003 21.4001C52.2085 21.1854 52.4405 20.8732 52.5962 20.4635C52.7552 20.0505 52.8347 19.5448 52.8347 18.9464Z" fill="#282828"/>
<path d="M56.8703 23.9415V13.9513H59.5761V21.7562H63.6057V23.9415H56.8703Z" fill="#282828"/>
</svg>
