<svg width="31" height="24" viewBox="0 0 31 24" fill="none" xmlns="http://www.w3.org/2000/svg">
<path d="M27.1594 0.607744L27.16 0.606998C27.3537 0.358438 27.6546 0.2125 27.9722 0.2125H30.5637C30.6894 0.2125 30.7514 0.354666 30.6803 0.443058L30.6795 0.444123L12.573 23.3886C12.573 23.3887 12.573 23.3887 12.5729 23.3888C12.1545 23.9141 11.3575 23.9133 10.9433 23.3891C10.9433 23.3891 10.9433 23.3891 10.9433 23.3891L0.788838 10.5246C0.714507 10.4303 0.781334 10.2892 0.904612 10.2892H3.49589C3.65243 10.2894 3.80689 10.325 3.94768 10.3934C4.08847 10.4619 4.21193 10.5613 4.30879 10.6843L4.30888 10.6844L11.6384 19.9714L11.7561 20.1206L11.8739 19.9714L27.1594 0.607744Z" fill="#282828" stroke="white" stroke-width="0.3"/>
</svg>
