<svg width="15" height="17" viewBox="0 0 15 17" fill="none" xmlns="http://www.w3.org/2000/svg">
<path d="M7.03956 1.04274C7.70644 1.04274 8.34589 1.30736 8.81733 1.77838C9.28889 2.24941 9.55378 2.88824 9.55378 3.55437V4.0567H4.52544V3.55437C4.52544 2.88824 4.79033 2.24941 5.26189 1.77838C5.73333 1.30736 6.37278 1.04274 7.03956 1.04274ZM10.5594 4.0567V3.55437C10.5594 2.62179 10.1886 1.72742 9.52844 1.06798C8.86844 0.408549 7.97311 0.0380859 7.03956 0.0380859C6.10611 0.0380859 5.21078 0.408549 4.55078 1.06798C3.89067 1.72742 3.51978 2.62179 3.51978 3.55437V4.0567H0V14.1032C0 14.6361 0.211912 15.1472 0.5891 15.524C0.9663 15.9009 1.47789 16.1126 2.01133 16.1126H12.0679C12.6013 16.1126 13.1129 15.9009 13.4901 15.524C13.8673 15.1472 14.0792 14.6361 14.0792 14.1032V4.0567H10.5594ZM1.00566 5.06135H13.0736V14.1032C13.0736 14.3696 12.9676 14.6253 12.779 14.8136C12.5904 15.002 12.3347 15.1079 12.0679 15.1079H2.01133C1.74456 15.1079 1.48878 15.002 1.30022 14.8136C1.11167 14.6253 1.00566 14.3696 1.00566 14.1032V5.06135Z" fill="white"/>
</svg>
