<svg width="69" height="25" viewBox="0 0 69 25" fill="none" xmlns="http://www.w3.org/2000/svg">
<path d="M5.62577 3.75854C5.59982 3.43333 5.47816 3.17967 5.26078 2.99756C5.04665 2.81545 4.72059 2.72439 4.2826 2.72439C4.00358 2.72439 3.77485 2.75854 3.59641 2.82683C3.42121 2.89187 3.29144 2.9813 3.20708 3.09512C3.12273 3.20894 3.07893 3.33902 3.07568 3.48537C3.06919 3.60569 3.09028 3.71463 3.13895 3.8122C3.19086 3.9065 3.27197 3.99268 3.38228 4.07073C3.49259 4.14553 3.63372 4.21382 3.80567 4.27561C3.97762 4.3374 4.18202 4.39268 4.41886 4.44146L5.23645 4.61707C5.78799 4.73415 6.26005 4.88862 6.65262 5.08049C7.0452 5.27236 7.36639 5.49837 7.61621 5.75854C7.86603 6.01545 8.04934 6.30488 8.16613 6.62683C8.28618 6.94878 8.34782 7.3 8.35106 7.68049C8.34782 8.3374 8.18398 8.8935 7.85954 9.34878C7.5351 9.80406 7.07115 10.1504 6.46769 10.3878C5.86748 10.6252 5.14561 10.7439 4.30206 10.7439C3.43581 10.7439 2.67987 10.6154 2.03423 10.3585C1.39184 10.1016 0.892208 9.7065 0.535325 9.17317C0.181686 8.63658 0.00324439 7.95041 0 7.11463H2.56956C2.58578 7.42032 2.66202 7.67724 2.79829 7.88537C2.93455 8.0935 3.12597 8.25122 3.37255 8.35854C3.62236 8.46585 3.91922 8.51951 4.26313 8.51951C4.55188 8.51951 4.79359 8.48374 4.98825 8.4122C5.18292 8.34065 5.33054 8.24146 5.43111 8.11463C5.53169 7.9878 5.5836 7.84309 5.58684 7.68049C5.5836 7.52764 5.53331 7.39431 5.43598 7.28049C5.34189 7.16341 5.18616 7.05935 4.96879 6.96829C4.75141 6.87398 4.45779 6.78618 4.08793 6.70488L3.09515 6.49024C2.21268 6.29837 1.51675 5.97805 1.00738 5.52927C0.501258 5.07724 0.249818 4.46098 0.253063 3.68049C0.249818 3.04634 0.418526 2.49187 0.759188 2.01707C1.10309 1.53902 1.5784 1.16667 2.1851 0.9C2.79504 0.633333 3.49421 0.5 4.2826 0.5C5.08721 0.5 5.78313 0.634959 6.37036 0.904878C6.9576 1.1748 7.41019 1.55528 7.72814 2.04634C8.04934 2.53415 8.21156 3.10488 8.2148 3.75854H5.62577Z" fill="white"/>
<path d="M9.38035 10.6268V0.636585H12.0862V4.67561H12.2224L15.2203 0.636585H18.3738L15.0061 5.08537L18.4517 10.6268H15.2203L12.9816 6.88049L12.0862 8.05122V10.6268H9.38035Z" fill="white"/>
<path d="M21.8826 0.636585V10.6268H19.1768V0.636585H21.8826Z" fill="white"/>
<path d="M23.165 10.6268V0.636585H25.8708V8.44146H29.9003V10.6268H23.165Z" fill="white"/>
<path d="M30.9941 10.6268V0.636585H33.6999V8.44146H37.7294V10.6268H30.9941Z" fill="white"/>
<path d="M44.1959 3.75854C44.17 3.43333 44.0483 3.17967 43.8309 2.99756C43.6168 2.81545 43.2907 2.72439 42.8527 2.72439C42.5737 2.72439 42.345 2.75854 42.1665 2.82683C41.9913 2.89187 41.8616 2.9813 41.7772 3.09512C41.6929 3.20894 41.6491 3.33902 41.6458 3.48537C41.6393 3.60569 41.6604 3.71463 41.7091 3.8122C41.761 3.9065 41.8421 3.99268 41.9524 4.07073C42.0627 4.14553 42.2039 4.21382 42.3758 4.27561C42.5478 4.3374 42.7522 4.39268 42.989 4.44146L43.8066 4.61707C44.3581 4.73415 44.8302 4.88862 45.2228 5.08049C45.6153 5.27236 45.9365 5.49837 46.1863 5.75854C46.4362 6.01545 46.6195 6.30488 46.7363 6.62683C46.8563 6.94878 46.918 7.3 46.9212 7.68049C46.918 8.3374 46.7541 8.8935 46.4297 9.34878C46.1052 9.80406 45.6413 10.1504 45.0378 10.3878C44.4376 10.6252 43.7157 10.7439 42.8722 10.7439C42.0059 10.7439 41.25 10.6154 40.6044 10.3585C39.962 10.1016 39.4623 9.7065 39.1055 9.17317C38.7518 8.63658 38.5734 7.95041 38.5701 7.11463H41.1397C41.1559 7.42032 41.2322 7.67724 41.3684 7.88537C41.5047 8.0935 41.6961 8.25122 41.9427 8.35854C42.1925 8.46585 42.4894 8.51951 42.8333 8.51951C43.122 8.51951 43.3637 8.48374 43.5584 8.4122C43.7531 8.34065 43.9007 8.24146 44.0012 8.11463C44.1018 7.9878 44.1537 7.84309 44.157 7.68049C44.1537 7.52764 44.1034 7.39431 44.0061 7.28049C43.912 7.16341 43.7563 7.05935 43.5389 6.96829C43.3215 6.87398 43.0279 6.78618 42.6581 6.70488L41.6653 6.49024C40.7828 6.29837 40.0869 5.97805 39.5775 5.52927C39.0714 5.07724 38.82 4.46098 38.8232 3.68049C38.82 3.04634 38.9887 2.49187 39.3293 2.01707C39.6732 1.53902 40.1485 1.16667 40.7552 0.9C41.3652 0.633333 42.0643 0.5 42.8527 0.5C43.6573 0.5 44.3533 0.634959 44.9405 0.904878C45.5277 1.1748 45.9803 1.55528 46.2983 2.04634C46.6195 2.53415 46.7817 3.10488 46.7849 3.75854H44.1959Z" fill="white"/>
<path d="M56.5789 0.636585H59.2848V7.03659C59.2848 7.79756 59.1031 8.4561 58.7397 9.01219C58.3796 9.56504 57.8767 9.99268 57.2311 10.2951C56.5854 10.5943 55.836 10.7439 54.9827 10.7439C54.1229 10.7439 53.3702 10.5943 52.7246 10.2951C52.079 9.99268 51.5761 9.56504 51.216 9.01219C50.8591 8.4561 50.6806 7.79756 50.6806 7.03659V0.636585H53.3865V6.80244C53.3865 7.11138 53.4546 7.3878 53.5909 7.63171C53.7271 7.87236 53.9153 8.06098 54.1554 8.19756C54.3987 8.33415 54.6745 8.40244 54.9827 8.40244C55.2942 8.40244 55.5699 8.33415 55.81 8.19756C56.0501 8.06098 56.2383 7.87236 56.3745 7.63171C56.5108 7.3878 56.5789 7.11138 56.5789 6.80244V0.636585Z" fill="white"/>
<path d="M60.5708 10.6268V0.636585H64.8728C65.6125 0.636585 66.2598 0.782927 66.8146 1.07561C67.3694 1.36829 67.8009 1.77967 68.1091 2.30976C68.4173 2.83984 68.5714 3.45935 68.5714 4.16829C68.5714 4.88374 68.4125 5.50325 68.0945 6.02683C67.7798 6.55041 67.3369 6.95366 66.7659 7.23659C66.1982 7.51951 65.5347 7.66098 64.7755 7.66098H62.2059V5.55366H64.2304C64.5484 5.55366 64.8193 5.49837 65.0432 5.3878C65.2703 5.27398 65.4438 5.11301 65.5639 4.90488C65.6872 4.69675 65.7488 4.45122 65.7488 4.16829C65.7488 3.88211 65.6872 3.63821 65.5639 3.43659C65.4438 3.23171 65.2703 3.07561 65.0432 2.96829C64.8193 2.85772 64.5484 2.80244 64.2304 2.80244H63.2766V10.6268H60.5708Z" fill="white"/>
<path d="M10.4905 17.4951C10.4646 17.1699 10.3429 16.9163 10.1255 16.7341C9.91141 16.552 9.58535 16.461 9.14736 16.461C8.86834 16.461 8.63961 16.4951 8.46117 16.5634C8.28597 16.6285 8.1562 16.7179 8.07184 16.8317C7.98749 16.9455 7.94369 17.0756 7.94045 17.222C7.93396 17.3423 7.95504 17.4512 8.00371 17.5488C8.05562 17.6431 8.13673 17.7293 8.24704 17.8073C8.35735 17.8821 8.49848 17.9504 8.67043 18.0122C8.84239 18.074 9.04678 18.1293 9.28362 18.178L10.1012 18.3537C10.6528 18.4707 11.1248 18.6252 11.5174 18.8171C11.91 19.0089 12.2312 19.235 12.481 19.4951C12.7308 19.752 12.9141 20.0415 13.0309 20.3634C13.1509 20.6854 13.2126 21.0366 13.2158 21.4171C13.2126 22.074 13.0487 22.6301 12.7243 23.0854C12.3999 23.5406 11.9359 23.887 11.3325 24.1244C10.7322 24.3618 10.0104 24.4805 9.16683 24.4805C8.30057 24.4805 7.54463 24.352 6.899 24.0951C6.25661 23.8382 5.75697 23.4431 5.40009 22.9098C5.04645 22.3732 4.86801 21.687 4.86476 20.8512H7.43432C7.45054 21.1569 7.52679 21.4138 7.66305 21.622C7.79931 21.8301 7.99073 21.9878 8.23731 22.0951C8.48713 22.2024 8.78399 22.2561 9.12789 22.2561C9.41664 22.2561 9.65835 22.2203 9.85301 22.1488C10.0477 22.0772 10.1953 21.978 10.2959 21.8512C10.3965 21.7244 10.4484 21.5797 10.4516 21.4171C10.4484 21.2642 10.3981 21.1309 10.3007 21.0171C10.2067 20.9 10.0509 20.7959 9.83355 20.7049C9.61617 20.6106 9.32256 20.5228 8.9527 20.4415L7.95991 20.2268C7.07744 20.035 6.38152 19.7146 5.87215 19.2659C5.36602 18.8138 5.11458 18.1976 5.11782 17.4171C5.11458 16.7829 5.28329 16.2285 5.62395 15.7537C5.96785 15.2756 6.44316 14.9032 7.04986 14.6366C7.65981 14.3699 8.35897 14.2366 9.14736 14.2366C9.95197 14.2366 10.6479 14.3715 11.2351 14.6415C11.8224 14.9114 12.275 15.2919 12.5929 15.7829C12.9141 16.2707 13.0763 16.8415 13.0796 17.4951H10.4905Z" fill="white"/>
<path d="M23.55 18.1195H20.8053C20.7858 17.8919 20.7339 17.6854 20.6495 17.5C20.5684 17.3146 20.4549 17.1553 20.3089 17.0219C20.1661 16.8854 19.9925 16.7813 19.7882 16.7098C19.5838 16.635 19.3518 16.5976 19.0922 16.5976C18.638 16.5976 18.2536 16.7081 17.9388 16.9293C17.6274 17.1504 17.3905 17.4675 17.2283 17.8805C17.0694 18.2935 16.9899 18.7894 16.9899 19.3683C16.9899 19.9797 17.071 20.4919 17.2332 20.9049C17.3987 21.3146 17.6371 21.6236 17.9486 21.8317C18.26 22.0366 18.6348 22.139 19.0728 22.139C19.3226 22.139 19.5464 22.1081 19.7444 22.0463C19.9423 21.9813 20.1142 21.8886 20.2602 21.7683C20.4062 21.648 20.5246 21.5033 20.6155 21.3341C20.7096 21.1618 20.7728 20.9683 20.8053 20.7537L23.55 20.7732C23.5176 21.1959 23.3992 21.6268 23.1948 22.0659C22.9904 22.5016 22.7 22.9049 22.3236 23.2756C21.9505 23.6431 21.4882 23.939 20.9367 24.1634C20.3851 24.3878 19.7444 24.5 19.0144 24.5C18.0994 24.5 17.2786 24.3033 16.5519 23.9098C15.8284 23.5163 15.2557 22.9374 14.834 22.1732C14.4154 21.4089 14.2062 20.474 14.2062 19.3683C14.2062 18.2561 14.4203 17.3195 14.8486 16.5585C15.2768 15.7943 15.8543 15.2171 16.5811 14.8268C17.3078 14.4333 18.1189 14.2366 19.0144 14.2366C19.6438 14.2366 20.2229 14.3228 20.7517 14.4951C21.2806 14.6675 21.7445 14.9195 22.1436 15.2512C22.5426 15.5797 22.8638 15.9846 23.1072 16.4659C23.3505 16.9472 23.4981 17.4984 23.55 18.1195Z" fill="white"/>
<path d="M24.7776 24.3634V14.3732H27.4834V18.2756H31.0653V14.3732H33.7711V24.3634H31.0653V20.461H27.4834V24.3634H24.7776Z" fill="white"/>
<path d="M44.7112 19.3683C44.7112 20.4805 44.4954 21.4187 44.0639 22.1829C43.6324 22.9439 43.05 23.5211 42.3168 23.9146C41.5836 24.3049 40.766 24.5 39.864 24.5C38.9556 24.5 38.1348 24.3033 37.4015 23.9098C36.6716 23.513 36.0908 22.9341 35.6593 22.1732C35.231 21.4089 35.0169 20.474 35.0169 19.3683C35.0169 18.2561 35.231 17.3195 35.6593 16.5585C36.0908 15.7943 36.6716 15.2171 37.4015 14.8268C38.1348 14.4333 38.9556 14.2366 39.864 14.2366C40.766 14.2366 41.5836 14.4333 42.3168 14.8268C43.05 15.2171 43.6324 15.7943 44.0639 16.5585C44.4954 17.3195 44.7112 18.2561 44.7112 19.3683ZM41.9275 19.3683C41.9275 18.7699 41.848 18.2659 41.689 17.8561C41.5333 17.4431 41.3013 17.1309 40.9931 16.9195C40.6881 16.7049 40.3118 16.5976 39.864 16.5976C39.4163 16.5976 39.0383 16.7049 38.7301 16.9195C38.4252 17.1309 38.1932 17.4431 38.0342 17.8561C37.8785 18.2659 37.8006 18.7699 37.8006 19.3683C37.8006 19.9667 37.8785 20.4724 38.0342 20.8854C38.1932 21.2951 38.4252 21.6073 38.7301 21.822C39.0383 22.0333 39.4163 22.139 39.864 22.139C40.3118 22.139 40.6881 22.0333 40.9931 21.822C41.3013 21.6073 41.5333 21.2951 41.689 20.8854C41.848 20.4724 41.9275 19.9667 41.9275 19.3683Z" fill="white"/>
<path d="M55.6184 19.3683C55.6184 20.4805 55.4026 21.4187 54.9711 22.1829C54.5396 22.9439 53.9573 23.5211 53.224 23.9146C52.4908 24.3049 51.6732 24.5 50.7713 24.5C49.8629 24.5 49.042 24.3033 48.3088 23.9098C47.5788 23.513 46.9981 22.9341 46.5665 22.1732C46.1383 21.4089 45.9242 20.474 45.9242 19.3683C45.9242 18.2561 46.1383 17.3195 46.5665 16.5585C46.9981 15.7943 47.5788 15.2171 48.3088 14.8268C49.042 14.4333 49.8629 14.2366 50.7713 14.2366C51.6732 14.2366 52.4908 14.4333 53.224 14.8268C53.9573 15.2171 54.5396 15.7943 54.9711 16.5585C55.4026 17.3195 55.6184 18.2561 55.6184 19.3683ZM52.8347 19.3683C52.8347 18.7699 52.7552 18.2659 52.5962 17.8561C52.4405 17.4431 52.2085 17.1309 51.9003 16.9195C51.5954 16.7049 51.219 16.5976 50.7713 16.5976C50.3236 16.5976 49.9456 16.7049 49.6374 16.9195C49.3324 17.1309 49.1004 17.4431 48.9414 17.8561C48.7857 18.2659 48.7078 18.7699 48.7078 19.3683C48.7078 19.9667 48.7857 20.4724 48.9414 20.8854C49.1004 21.2951 49.3324 21.6073 49.6374 21.822C49.9456 22.0333 50.3236 22.139 50.7713 22.139C51.219 22.139 51.5954 22.0333 51.9003 21.822C52.2085 21.6073 52.4405 21.2951 52.5962 20.8854C52.7552 20.4724 52.8347 19.9667 52.8347 19.3683Z" fill="white"/>
<path d="M56.8703 24.3634V14.3732H59.5761V22.178H63.6057V24.3634H56.8703Z" fill="white"/>
</svg>
