<svg width="20" height="20" viewBox="0 0 20 20" fill="none" xmlns="http://www.w3.org/2000/svg">
<g clip-path="url(#clip0_111_690)">
<path d="M16.9675 3.03221L16.9676 3.03228C17.8758 3.9427 18.5881 5.00232 19.085 6.18297C19.5973 7.40547 19.8567 8.70469 19.8501 10.0439C19.8435 11.3769 19.5796 12.6674 19.0609 13.8808L19.0608 13.881C18.5617 15.0527 17.8474 16.1035 16.9392 17.0028L16.939 17.003C16.0385 17.8979 14.9722 18.6088 13.7998 19.0958C12.5971 19.5949 11.3198 19.85 10.0024 19.85L9.95622 19.85C9.95609 19.85 9.95596 19.85 9.95583 19.85C8.42898 19.8425 6.92465 19.4812 5.56089 18.7946L5.52906 18.7786H5.49343H2.09834C1.8658 18.7786 1.64279 18.6862 1.47836 18.5218C1.31393 18.3573 1.22156 18.1343 1.22156 17.9018V14.5089V14.4733L1.20553 14.4415C0.51884 13.0776 0.157586 11.5731 0.150125 10.0461L0.150125 10.0461C0.143527 8.71336 0.398592 7.41844 0.904287 6.20037L0.904297 6.20035C1.39228 5.02436 2.09785 3.96919 2.99733 3.06091L2.9974 3.06084C3.89055 2.15788 4.95085 1.43733 6.11921 0.939327L6.11936 0.939263C7.33263 0.420547 8.62294 0.156646 9.95586 0.15H10.0001C11.3241 0.15 12.6079 0.407261 13.817 0.915083L13.8172 0.915167C14.9957 1.40809 16.0659 2.12735 16.9675 3.03221ZM15.9561 16.0084L15.9562 16.0083C17.556 14.4222 18.4445 12.3015 18.4582 10.0388L18.4582 10.0385C18.4627 8.88917 18.2423 7.77545 17.8014 6.72541C17.3764 5.71178 16.7627 4.80042 15.9834 4.02117C15.2019 3.23966 14.2928 2.62822 13.2792 2.20323C12.2405 1.76683 11.1381 1.54643 10.0024 1.54643L9.96441 1.54643L9.96381 1.54643C7.69882 1.55552 5.57805 2.44185 3.99182 4.04394C2.40333 5.64607 1.53747 7.77365 1.54656 10.0385L1.54656 10.0387C1.55337 11.4087 1.89411 12.7698 2.53517 13.9723L2.53532 13.9726L2.61798 14.1269V17.2321V17.3821H2.76798H5.87319L6.02751 17.4648L6.02778 17.465C7.23033 18.106 8.59138 18.4468 9.96143 18.4536H9.96218H10.0001C12.2493 18.4536 14.3632 17.5854 15.9561 16.0084ZM9.34858 10.6515C9.17578 10.4787 9.0787 10.2444 9.0787 10C9.0787 9.75562 9.17578 9.52125 9.34858 9.34845C9.52138 9.17565 9.75575 9.07857 10.0001 9.07857C10.2445 9.07857 10.4789 9.17565 10.6517 9.34845C10.8245 9.52125 10.9216 9.75562 10.9216 10C10.9216 10.2444 10.8245 10.4787 10.6517 10.6515C10.4789 10.8243 10.2445 10.9214 10.0001 10.9214C9.75575 10.9214 9.52138 10.8243 9.34858 10.6515ZM13.8129 10.6515C13.6401 10.4787 13.543 10.2444 13.543 10C13.543 9.75562 13.6401 9.52125 13.8129 9.34845C13.9857 9.17565 14.22 9.07857 14.4644 9.07857C14.7088 9.07857 14.9432 9.17565 15.116 9.34845C15.2888 9.52125 15.3858 9.75562 15.3858 10C15.3858 10.2444 15.2888 10.4787 15.116 10.6515C14.9432 10.8243 14.7088 10.9214 14.4644 10.9214C14.22 10.9214 13.9857 10.8243 13.8129 10.6515ZM4.88429 10.6515C4.71149 10.4787 4.61441 10.2444 4.61441 10C4.61441 9.75562 4.71149 9.52125 4.88429 9.34845C5.05709 9.17565 5.29146 9.07857 5.53584 9.07857C5.78022 9.07857 6.01459 9.17565 6.18739 9.34845C6.36019 9.52125 6.45727 9.75562 6.45727 10C6.45727 10.2444 6.36019 10.4787 6.18739 10.6515C6.01459 10.8243 5.78022 10.9214 5.53584 10.9214C5.29146 10.9214 5.05709 10.8243 4.88429 10.6515Z" fill="black" fill-opacity="0.85" stroke="white" stroke-width="0.3"/>
</g>
<defs>
<clipPath id="clip0_111_690">
<rect width="20" height="20" fill="white"/>
</clipPath>
</defs>
</svg>
