<svg width="20" height="20" viewBox="0 0 20 20" fill="none" xmlns="http://www.w3.org/2000/svg">
<g clip-path="url(#clip0_111_695)">
<path d="M15.178 -0.0488281H4.82091C4.03296 -0.0488281 3.39233 0.591797 3.39233 1.37974V18.5226C3.39233 19.3105 4.03296 19.9512 4.82091 19.9512H15.178C15.966 19.9512 16.6066 19.3105 16.6066 18.5226V1.37974C16.6066 0.591797 15.966 -0.0488281 15.178 -0.0488281ZM14.9995 18.344H4.99948V1.55831H14.9995V18.344ZM9.10662 16.0672C9.10662 16.304 9.20069 16.5311 9.36813 16.6986C9.53557 16.866 9.76268 16.9601 9.99948 16.9601C10.2363 16.9601 10.4634 16.866 10.6308 16.6986C10.7983 16.5311 10.8923 16.304 10.8923 16.0672C10.8923 15.8304 10.7983 15.6033 10.6308 15.4359C10.4634 15.2685 10.2363 15.1744 9.99948 15.1744C9.76268 15.1744 9.53557 15.2685 9.36813 15.4359C9.20069 15.6033 9.10662 15.8304 9.10662 16.0672Z" fill="black" fill-opacity="0.85"/>
</g>
<defs>
<clipPath id="clip0_111_695">
<rect width="20" height="20" fill="white"/>
</clipPath>
</defs>
</svg>
