<svg width="26" height="26" viewBox="0 0 26 26" fill="none" xmlns="http://www.w3.org/2000/svg">
<path fill-rule="evenodd" clip-rule="evenodd" d="M8.81963 24.509C8.81467 24.5076 8.80914 24.5059 8.80307 24.5041L8.8 24.5031V24.5406C8.80651 24.5302 8.81305 24.5196 8.81963 24.509Z" fill="#282828"/>
<path fill-rule="evenodd" clip-rule="evenodd" d="M25.1877 12.5781C25.1877 19.4817 19.5912 25.0781 12.6877 25.0781C12.6562 25.0781 12.6248 25.078 12.5934 25.0778C15.8749 25.0533 19.0166 23.7391 21.3388 21.417C23.683 19.0728 25 15.8933 25 12.5781C25 10.9366 24.6767 9.31115 24.0485 7.79458C23.4203 6.27801 22.4996 4.90002 21.3388 3.73929C20.1781 2.57856 18.8001 1.65781 17.2835 1.02963C15.7957 0.413357 14.2031 0.0904944 12.5933 0.0784735C12.6248 0.0782413 12.6562 0.078125 12.6877 0.078125C19.5912 0.078125 25.1877 5.67457 25.1877 12.5781ZM8.8407 24.475C8.57047 24.3877 8.30426 24.2914 8.04243 24.1865L8.05 24.2531C8.24866 24.3209 8.66472 24.4617 8.80307 24.5041L8.81963 24.509L8.8407 24.475Z" fill="#282828"/>
<path d="M21.3388 21.417C23.683 19.0728 25 15.8933 25 12.5781C25 10.9366 24.6767 9.31115 24.0485 7.79458C23.4203 6.27801 22.4996 4.90002 21.3388 3.73929C20.1781 2.57856 18.8001 1.65781 17.2835 1.02963C15.7957 0.413357 14.2031 0.0904944 12.5933 0.0784735C5.73321 0.129179 0.187683 5.70604 0.187683 12.5781C0.187683 17.8401 3.43908 22.3427 8.04243 24.1865C7.93262 23.206 7.83005 21.6406 8.05 20.5531L9.4875 14.3781C9.4875 14.3781 9.125 13.6531 9.125 12.5031C9.125 10.7781 10.2 9.49062 11.425 9.49062C12.5 9.49062 13 10.2781 13 11.2906C13 11.9677 12.7174 12.8282 12.4175 13.7411C12.2413 14.2776 12.0592 14.8321 11.925 15.3781C11.7125 16.6031 12.575 17.6781 13.825 17.6781C16.05 17.6781 17.775 15.3031 17.775 11.9531C17.775 8.95312 15.625 6.90312 12.5375 6.90312C9.0125 6.90312 6.9375 9.52813 6.9375 12.2906C6.9375 13.3656 7.2875 14.4531 7.8625 15.1656C7.975 15.2406 7.975 15.3406 7.9375 15.5281L7.575 16.8906C7.575 17.1031 7.4375 17.1781 7.225 17.0281C5.625 16.3281 4.7 14.0531 4.7 12.2156C4.7 8.26562 7.5 4.67812 12.9 4.67812C17.2 4.67812 20.55 7.76563 20.55 11.8656C20.55 16.1656 17.8875 19.6156 14.075 19.6156C12.8625 19.6156 11.675 18.9656 11.25 18.2031L10.4125 21.1656C10.1322 22.2138 9.3765 23.6066 8.8407 24.475C10.0242 24.8574 11.2849 25.0681 12.5934 25.0778C15.8749 25.0533 19.0166 23.7391 21.3388 21.417Z" fill="#282828"/>
<rect x="0.5" y="0.578125" width="24.1877" height="24" rx="12" stroke="#282828"/>
</svg>
