<svg width="26" height="25" viewBox="0 0 26 25" fill="none" xmlns="http://www.w3.org/2000/svg">
<path fill-rule="evenodd" clip-rule="evenodd" d="M9.63213 24.4309C9.62717 24.4295 9.62164 24.4278 9.61557 24.4259L9.6125 24.425V24.4625C9.61901 24.4521 9.62555 24.4415 9.63213 24.4309Z" fill="white"/>
<path fill-rule="evenodd" clip-rule="evenodd" d="M26.0002 12.5C26.0002 19.4036 20.4037 25 13.5002 25C13.4687 25 13.4373 24.9999 13.4059 24.9997C16.6874 24.9752 19.8291 23.661 22.1513 21.3388C24.4955 18.9946 25.8125 15.8152 25.8125 12.5C25.8125 10.8585 25.4892 9.23303 24.861 7.71646C24.2328 6.19989 23.3121 4.8219 22.1513 3.66117C20.9906 2.50043 19.6126 1.57969 18.096 0.951506C16.6082 0.335232 15.0156 0.0123694 13.4058 0.000348528C13.4373 0.000116313 13.4687 0 13.5002 0C20.4037 0 26.0002 5.59644 26.0002 12.5ZM9.6532 24.3968C9.38297 24.3095 9.11676 24.2133 8.85493 24.1084L8.8625 24.175C9.06116 24.2428 9.47722 24.3836 9.61557 24.4259L9.63213 24.4309L9.6532 24.3968Z" fill="white"/>
<path d="M10.3 14.3L8.8625 20.475C8.64255 21.5625 8.74512 23.1279 8.85493 24.1084C9.11676 24.2133 9.38297 24.3095 9.6532 24.3968C10.189 23.5285 10.9447 22.1357 11.225 21.0875L12.0625 18.125C12.4875 18.8875 13.675 19.5375 14.8875 19.5375C18.7 19.5375 21.3625 16.0875 21.3625 11.7875C21.3625 7.6875 18.0125 4.6 13.7125 4.6C8.3125 4.6 5.5125 8.1875 5.5125 12.1375C5.5125 13.975 6.4375 16.25 8.0375 16.95C8.25 17.1 8.3875 17.025 8.3875 16.8125L8.75 15.45C8.7875 15.2625 8.7875 15.1625 8.675 15.0875C8.1 14.375 7.75 13.2875 7.75 12.2125C7.75 9.45 9.825 6.825 13.35 6.825C16.4375 6.825 18.5875 8.875 18.5875 11.875C18.5875 15.225 16.8625 17.6 14.6375 17.6C13.3875 17.6 12.525 16.525 12.7375 15.3C12.8717 14.754 13.0538 14.1994 13.23 13.663C13.5299 12.7501 13.8125 11.8896 13.8125 11.2125C13.8125 10.2 13.3125 9.4125 12.2375 9.4125C11.0125 9.4125 9.9375 10.7 9.9375 12.425C9.9375 13.575 10.3 14.3 10.3 14.3Z" fill="white"/>
<rect x="1.3125" y="0.5" width="24.1877" height="24" rx="12" stroke="white"/>
</svg>
