<svg width="21" height="20" viewBox="0 0 21 20" fill="none" xmlns="http://www.w3.org/2000/svg">
<path d="M19.5578 3.43183L19.5599 3.43155C19.5793 3.42893 19.5918 3.44497 19.5899 3.45892L19.5896 3.46138L19.0539 7.90743C19.0539 7.90749 19.0539 7.90755 19.0539 7.90761C19.0532 7.91289 19.0511 7.91789 19.0477 7.92203C19.0443 7.92622 19.0398 7.92938 19.0347 7.93114C19.0296 7.9329 19.0242 7.93319 19.0189 7.93199C19.0137 7.9308 19.0089 7.92818 19.0051 7.92443C19.0051 7.9244 19.0051 7.92437 19.005 7.92433L17.6816 6.60093L17.5756 6.49491L17.4695 6.60089L11.4115 12.6545L11.4115 12.6545C11.3322 12.7337 11.2014 12.7351 11.1186 12.654C11.1185 12.6539 11.1184 12.6538 11.1183 12.6537L8.84903 10.3844L8.74299 10.2784L8.63692 10.3844L2.46058 16.5585L2.46056 16.5585C2.4556 16.5635 2.44867 16.5665 2.44051 16.5665C2.43235 16.5665 2.42542 16.5635 2.42046 16.5585L1.41652 15.5501C1.41651 15.5501 1.41649 15.5501 1.41648 15.5501C1.41108 15.5446 1.40806 15.5372 1.40806 15.5295C1.40806 15.5219 1.41104 15.5146 1.41637 15.5091C1.41642 15.5091 1.41647 15.509 1.41652 15.509L8.5968 8.32646C8.67723 8.24603 8.8077 8.24502 8.88913 8.32646L8.88919 8.32651L11.1615 10.5966L11.2676 10.7026L11.3736 10.5965L16.4182 5.5519L16.5243 5.44584L16.4182 5.33977L15.0946 4.01611C15.0895 4.011 15.0876 4.00653 15.0868 4.00272C15.0859 3.99826 15.0861 3.99264 15.0881 3.98675C15.0902 3.98085 15.0935 3.97629 15.097 3.97333C15.1 3.97079 15.1043 3.96839 15.1115 3.96752L19.5578 3.43183Z" fill="black" fill-opacity="0.85" stroke="white" stroke-width="0.3"/>
</svg>
