<svg width="21" height="22" viewBox="0 0 21 22" fill="none" xmlns="http://www.w3.org/2000/svg">
<path d="M10.5 0.427734C4.704 0.427734 0 5.09604 0 10.8481C0 16.6001 4.704 21.2684 10.5 21.2684C16.296 21.2684 21 16.6001 21 10.8481C21 5.09604 16.296 0.427734 10.5 0.427734ZM15.372 7.51355C15.2145 9.15996 14.532 13.1614 14.1855 15.0058C14.0385 15.7873 13.7445 16.0478 13.4715 16.0791C12.8625 16.1312 12.4005 15.6831 11.8125 15.2975C10.8885 14.6931 10.3635 14.318 9.471 13.7345C8.4315 13.0572 9.1035 12.682 9.702 12.0776C9.8595 11.9213 12.5475 9.49341 12.6 9.27458C12.6073 9.24144 12.6063 9.20703 12.5972 9.17434C12.588 9.14166 12.571 9.11168 12.5475 9.08702C12.4845 9.03492 12.4005 9.05576 12.327 9.06618C12.2325 9.08702 10.7625 10.0561 7.896 11.9734C7.476 12.2548 7.098 12.4007 6.762 12.3903C6.384 12.3798 5.67 12.1819 5.1345 12.0047C4.473 11.7963 3.9585 11.6817 4.0005 11.317C4.0215 11.1294 4.284 10.9418 4.7775 10.7438C7.8435 9.42047 9.8805 8.54516 10.899 8.12835C13.818 6.91959 14.4165 6.71118 14.8155 6.71118C14.8995 6.71118 15.099 6.73203 15.225 6.83623C15.33 6.91959 15.3615 7.03421 15.372 7.11758C15.3615 7.1801 15.3825 7.36767 15.372 7.51355Z" fill="#CBCBCB"/>
</svg>
