<svg width="21" height="22" viewBox="0 0 21 22" fill="none" xmlns="http://www.w3.org/2000/svg">
<path d="M13.7266 0.427734H7.28385C1.39965 0.427734 0 1.81676 0 7.64589V14.0398C0 19.8783 1.38915 21.2684 7.27335 21.2684H13.7161C19.5993 21.2684 21 19.8898 21 14.0502V7.65631C21 1.81676 19.6108 0.427734 13.7266 0.427734ZM16.9533 15.2975H15.4213C14.8417 15.2975 14.6674 14.8317 13.6279 13.8001C12.7207 12.9321 12.3375 12.8237 12.1075 12.8237C11.7905 12.8237 11.7033 12.9102 11.7033 13.3448V14.7119C11.7033 15.0818 11.5825 15.2986 10.6092 15.2986C9.66456 15.2356 8.74852 14.9508 7.93653 14.4676C7.12454 13.9844 6.43983 13.3167 5.9388 12.5195C4.74933 11.0502 3.92169 9.32578 3.5217 7.48333C3.5217 7.25513 3.60885 7.0488 4.0467 7.0488H5.5776C5.97135 7.0488 6.1131 7.22282 6.26745 7.624C7.01085 9.7956 8.27925 11.6838 8.79375 11.6838C8.99115 11.6838 9.07725 11.5973 9.07725 11.1086V8.87236C9.01215 7.85221 8.46615 7.76572 8.46615 7.39684C8.47316 7.29955 8.51809 7.20879 8.5914 7.14382C8.66471 7.07884 8.76064 7.04476 8.85885 7.0488H11.2654C11.5941 7.0488 11.7033 7.21136 11.7033 7.60212V10.6198C11.7033 10.946 11.845 11.0544 11.9437 11.0544C12.1411 11.0544 12.2934 10.946 12.6546 10.5875C13.4304 9.64862 14.0643 8.60255 14.5362 7.48229C14.5844 7.34772 14.6757 7.23252 14.7961 7.15425C14.9165 7.07598 15.0594 7.03895 15.2029 7.0488H16.7349C17.1937 7.0488 17.2914 7.27701 17.1937 7.60212C16.6367 8.8405 15.9475 10.016 15.1378 11.1086C14.973 11.3586 14.9068 11.4889 15.1378 11.7817C15.2901 12.0099 15.8266 12.4549 16.1878 12.8779C16.7127 13.3975 17.1486 13.9987 17.4783 14.6577C17.6095 15.0808 17.3901 15.2986 16.9533 15.2986V15.2975Z" fill="#CBCBCB"/>
</svg>
