<svg width="25" height="26" viewBox="0 0 25 26" fill="none" xmlns="http://www.w3.org/2000/svg">
<path fill-rule="evenodd" clip-rule="evenodd" d="M12.5 0.078125C5.6 0.078125 0 5.67812 0 12.5781C0 19.4781 5.6 25.0781 12.5 25.0781C19.4 25.0781 25 19.4781 25 12.5781C25 5.67812 19.4 0.078125 12.5 0.078125ZM16.8875 17.5656C17.3 15.3531 18.1125 10.5531 18.3 8.57812C18.3066 8.48598 18.3028 8.37997 18.2995 8.2893C18.2966 8.20777 18.2941 8.13863 18.3 8.10312C18.2875 8.00312 18.25 7.86562 18.125 7.76562C17.975 7.64062 17.7375 7.61562 17.6375 7.61562C17.1625 7.61562 16.45 7.86563 12.975 9.31563C11.7625 9.81563 9.3375 10.8656 5.6875 12.4531C5.1 12.6906 4.7875 12.9156 4.7625 13.1406C4.71767 13.5329 5.20539 13.684 5.87431 13.8912C5.95147 13.9151 6.03105 13.9398 6.1125 13.9656C6.75 14.1781 7.6 14.4156 8.05 14.4281C8.45 14.4406 8.9 14.2656 9.4 13.9281C12.8125 11.6281 14.5625 10.4656 14.675 10.4406L14.7048 10.4361C14.7846 10.4236 14.8709 10.4101 14.9375 10.4656C14.9654 10.4952 14.9857 10.5312 14.9966 10.5704C15.0075 10.6096 15.0087 10.6509 15 10.6906C14.9504 10.8991 12.9218 12.779 11.995 13.6379L11.8295 13.7913C11.6797 13.9303 11.5789 14.0242 11.55 14.0531C11.4659 14.1387 11.3807 14.2204 11.2977 14.2993L11.2622 14.333C10.6588 14.9061 10.2044 15.3377 11.275 16.0406C11.8032 16.3886 12.2233 16.6749 12.6474 16.9638C13.0764 17.256 13.5094 17.5511 14.0625 17.9156C14.203 18.0084 14.3374 18.1043 14.4684 18.1976C14.9903 18.5697 15.458 18.9031 16.0375 18.8531C16.3625 18.8156 16.7125 18.5031 16.8875 17.5656Z" fill="#282828"/>
</svg>
