<svg width="26" height="25" viewBox="0 0 26 25" fill="none" xmlns="http://www.w3.org/2000/svg">
<path d="M19.1125 8.5C18.925 10.475 18.1125 15.275 17.7 17.4875C17.525 18.425 17.175 18.7375 16.85 18.775C16.2705 18.825 15.8028 18.4915 15.2809 18.1195C15.1499 18.0261 15.0155 17.9303 14.875 17.8375C14.3219 17.4729 13.8889 17.1779 13.4599 16.8857C13.0358 16.5967 12.6157 16.3105 12.0875 15.9625C11.0169 15.2596 11.4713 14.8279 12.0747 14.2548L12.1102 14.2212C12.1932 14.1422 12.2784 14.0605 12.3625 13.975C12.3914 13.9461 12.4922 13.8522 12.642 13.7132L12.8075 13.5598C13.7343 12.7009 15.7629 10.821 15.8125 10.6125C15.8212 10.5727 15.82 10.5315 15.8091 10.4923C15.7982 10.453 15.7779 10.4171 15.75 10.3875C15.6834 10.332 15.5971 10.3455 15.5173 10.358L15.4875 10.3625C15.375 10.3875 13.625 11.55 10.2125 13.85C9.7125 14.1875 9.2625 14.3625 8.8625 14.35C8.4125 14.3375 7.5625 14.1 6.925 13.8875C6.84355 13.8616 6.76397 13.837 6.68681 13.8131C6.01789 13.6058 5.53017 13.4548 5.575 13.0625C5.6 12.8375 5.9125 12.6125 6.5 12.375C10.15 10.7875 12.575 9.7375 13.7875 9.2375C17.2625 7.7875 17.975 7.5375 18.45 7.5375C18.55 7.5375 18.7875 7.5625 18.9375 7.6875C19.0625 7.7875 19.1 7.925 19.1125 8.025C19.1066 8.06051 19.1091 8.12964 19.112 8.21118C19.1153 8.30185 19.1191 8.40786 19.1125 8.5Z" fill="white"/>
<rect x="1.3125" y="0.5" width="24" height="24" rx="12" stroke="white"/>
</svg>
