<svg width="25" height="26" viewBox="0 0 25 26" fill="none" xmlns="http://www.w3.org/2000/svg">
<path fill-rule="evenodd" clip-rule="evenodd" d="M17.5522 14.4621C17.5777 14.4884 17.6036 14.515 17.6297 14.542C17.8124 14.7311 18.0071 14.9362 18.1684 15.1369C18.7189 15.7157 19.176 16.3853 19.5218 17.1194" fill="#282828"/>
<path fill-rule="evenodd" clip-rule="evenodd" d="M12.5 0.078125C5.59635 0.078125 0 5.67448 0 12.5781C0 19.4818 5.59635 25.0781 12.5 25.0781C19.4036 25.0781 25 19.4818 25 12.5781C25 5.67448 19.4036 0.078125 12.5 0.078125ZM17.3645 17.8321H18.9712V17.8332C19.4293 17.8332 19.6594 17.5906 19.5218 17.1194C19.176 16.3853 18.7189 15.7157 18.1684 15.1369C18.0071 14.9362 17.8124 14.7311 17.6297 14.542L17.5522 14.4621C17.3373 14.2403 17.1492 14.0463 17.0672 13.9158C16.825 13.5897 16.8943 13.4446 17.0672 13.166C17.9163 11.949 18.6392 10.6396 19.2233 9.26019C19.3258 8.89804 19.2234 8.64385 18.7421 8.64385H17.1355C16.9849 8.63287 16.8351 8.67412 16.7088 8.7613C16.5826 8.84848 16.4868 8.97681 16.4362 9.1267C15.9413 10.3746 15.2765 11.5398 14.4629 12.5856C14.0841 12.9849 13.9244 13.1056 13.7174 13.1056C13.6139 13.1056 13.4652 12.9849 13.4652 12.6216V9.26019C13.4652 8.82492 13.3507 8.64385 13.006 8.64385H10.4821C10.3791 8.63935 10.2785 8.67731 10.2016 8.74968C10.1247 8.82205 10.0776 8.92315 10.0703 9.03153C10.0703 9.1898 10.1552 9.30141 10.2636 9.44376C10.4366 9.67096 10.6692 9.97648 10.7111 10.6751V13.166C10.7111 13.7104 10.6209 13.8067 10.4138 13.8067C9.87424 13.8067 8.54401 11.7035 7.76436 9.28456C7.60249 8.83769 7.45383 8.64385 7.04088 8.64385H5.43535C4.97615 8.64385 4.88475 8.87367 4.88475 9.12786C5.30424 11.1802 6.17223 13.101 7.41969 14.7376C7.94514 15.6256 8.66323 16.3694 9.51481 16.9076C10.3664 17.4458 11.3271 17.763 12.3178 17.8332C13.3386 17.8332 13.4652 17.5918 13.4652 17.1797V15.6569C13.4652 15.1729 13.5566 15.0765 13.8892 15.0765C14.1303 15.0765 14.5323 15.1972 15.4837 16.1641C15.8098 16.5079 16.0547 16.7952 16.2541 17.0291C16.7213 17.5772 16.9385 17.8321 17.3645 17.8321Z" fill="#282828"/>
</svg>
