<svg width="26" height="25" viewBox="0 0 26 25" fill="none" xmlns="http://www.w3.org/2000/svg">
<path fill-rule="evenodd" clip-rule="evenodd" d="M18.3647 14.384C18.3902 14.4102 18.4161 14.4369 18.4422 14.4639C18.6249 14.6529 18.8196 14.8581 18.9809 15.0588C19.5314 15.6375 19.9885 16.3072 20.3343 17.0413" fill="white"/>
<path d="M19.7837 17.7539H18.177C17.751 17.7539 17.5338 17.4991 17.0666 16.951C16.8672 16.7171 16.6223 16.4297 16.2962 16.086C15.3448 15.1191 14.9428 14.9984 14.7017 14.9984C14.3691 14.9984 14.2777 15.0947 14.2777 15.5788V17.1016C14.2777 17.5137 14.1511 17.7551 13.1303 17.7551C12.1396 17.6849 11.1789 17.3677 10.3273 16.8295C9.47573 16.2913 8.75764 15.5475 8.23219 14.6595C6.98473 13.0229 6.11674 11.102 5.69725 9.04974C5.69725 8.79554 5.78865 8.56572 6.24785 8.56572H7.85338C8.26633 8.56572 8.41499 8.75956 8.57686 9.20644C9.35651 11.6254 10.6867 13.7286 11.2263 13.7286C11.4334 13.7286 11.5236 13.6322 11.5236 13.0879V10.597C11.4817 9.89836 11.2491 9.59283 11.0761 9.36563C10.9677 9.22328 10.8828 9.11168 10.8828 8.9534C10.8901 8.84502 10.9372 8.74393 11.0141 8.67155C11.091 8.59918 11.1916 8.56122 11.2946 8.56572H13.8185C14.1632 8.56572 14.2777 8.74679 14.2777 9.18206V12.5435C14.2777 12.9068 14.4264 13.0275 14.5299 13.0275C14.7369 13.0275 14.8966 12.9068 15.2754 12.5075C16.089 11.4616 16.7538 10.2964 17.2487 9.04858C17.2993 8.89869 17.3951 8.77036 17.5213 8.68318C17.6476 8.59599 17.7974 8.55475 17.948 8.56572H19.5546C20.0359 8.56572 20.1383 8.81992 20.0358 9.18206C19.4517 10.5615 18.7288 11.8709 17.8797 13.0879C17.7068 13.3664 17.6375 13.5115 17.8797 13.8377C17.9617 13.9682 18.1498 14.1622 18.3647 14.384L18.4422 14.4639C18.6249 14.6529 18.8196 14.8581 18.9809 15.0588C19.5314 15.6375 19.9885 16.3072 20.3343 17.0413C20.4719 17.5125 20.2418 17.7551 19.7837 17.7551V17.7539Z" fill="white"/>
<rect x="1.3125" y="0.5" width="24" height="24" rx="12" stroke="white"/>
</svg>
