<svg width="25" height="26" viewBox="0 0 25 26" fill="none" xmlns="http://www.w3.org/2000/svg">
<path fill-rule="evenodd" clip-rule="evenodd" d="M12.5 0.078125C5.59635 0.078125 0 5.67448 0 12.5781C0 19.4818 5.59635 25.0781 12.5 25.0781C19.4036 25.0781 25 19.4818 25 12.5781C25 5.67448 19.4036 0.078125 12.5 0.078125ZM5.98958 12.5781C5.98958 17.0794 6.10156 17.6562 12.5 17.6562C18.8984 17.6562 19.0104 17.0794 19.0104 12.5781C19.0104 8.07682 18.8984 7.5 12.5 7.5C6.10156 7.5 5.98958 8.07682 5.98958 12.5781Z" fill="#282828"/>
<path d="M14.5872 12.3607L11.6628 10.9961C11.4076 10.8776 11.1979 11.0104 11.1979 11.293V13.8633C11.1979 14.1458 11.4076 14.2786 11.6628 14.1602L14.5859 12.7956C14.8424 12.6758 14.8424 12.4805 14.5872 12.3607Z" fill="#282828"/>
</svg>
